<svg width="43" height="43" viewBox="0 0 43 43" fill="none" xmlns="http://www.w3.org/2000/svg">
<rect width="42.7633" height="42.75" rx="5" fill="#1976D2"/>
<g clip-path="url(#clip0_255_255)">
<path d="M9.4433 39.75V22.47H16.5833C16.7513 22.47 16.9673 22.478 17.2313 22.494C17.4953 22.502 17.7393 22.526 17.9633 22.566C18.9633 22.718 19.7873 23.05 20.4353 23.562C21.0913 24.074 21.5753 24.722 21.8873 25.506C22.2073 26.282 22.3673 27.146 22.3673 28.098C22.3673 29.506 22.0113 30.718 21.2993 31.734C20.5873 32.742 19.4953 33.366 18.0233 33.606L16.7873 33.714H12.3353V39.75H9.4433ZM19.3673 39.75L15.9593 32.718L18.8993 32.07L22.6433 39.75H19.3673ZM12.3353 31.014H16.4633C16.6233 31.014 16.8033 31.006 17.0033 30.99C17.2033 30.974 17.3873 30.942 17.5553 30.894C18.0353 30.774 18.4113 30.562 18.6833 30.258C18.9633 29.954 19.1593 29.61 19.2713 29.226C19.3913 28.842 19.4513 28.466 19.4513 28.098C19.4513 27.73 19.3913 27.354 19.2713 26.97C19.1593 26.578 18.9633 26.23 18.6833 25.926C18.4113 25.622 18.0353 25.41 17.5553 25.29C17.3873 25.242 17.2033 25.214 17.0033 25.206C16.8033 25.19 16.6233 25.182 16.4633 25.182H12.3353V31.014ZM25.2871 39.75V22.47H28.1791V30.486L35.0791 22.47H38.6311L31.2031 30.942L39.1351 39.75H35.4631L28.1791 31.686V39.75H25.2871Z" fill="white"/>
</g>
<defs>
<clipPath id="clip0_255_255">
<rect width="31" height="18" fill="white" transform="translate(8.76331 21.75)"/>
</clipPath>
</defs>
</svg>
